<?xml version="1.0" ?><svg id="Layer_1" style="enable-background:new 0 0 32 32;" version="1.1" viewBox="0 0 32 32" xml:space="preserve" xmlns="http://www.w3.org/2000/svg" xmlns:xlink="http://www.w3.org/1999/xlink"><style type="text/css">
	.st0{fill:#C77C58;}
	.st1{fill:#393B3D;}
	.st2{fill:#FFFFFF;}
	.st3{fill:#F25949;}
</style><g id="Bomb"><g><path class="st0" d="M24.986,6.284c0.364-0.353,0.997-0.076,0.997,0.398v13.153c0,0.552,0.447,1,1,1s1-0.448,1-1V6.682    c0-1.42-1.155-2.576-2.575-2.576c-0.676,0-1.319,0.263-1.824,0.751l-1.698,1.698L23.3,7.97L24.986,6.284z"/><path class="st1" d="M24.449,9.947c0-0.534-0.208-1.036-0.585-1.412L23.3,7.97l-1.414-1.414l-0.56-0.56    c-0.756-0.754-2.072-0.753-2.824,0l-1.051,1.051c-4.09-1.884-9.03-1.038-12.255,2.186C3.135,11.294,2,14.034,2,16.949    s1.135,5.655,3.196,7.716s4.801,3.196,7.716,3.196s5.654-1.135,7.716-3.196c3.224-3.223,4.07-8.162,2.185-12.254l1.051-1.051    C24.241,10.982,24.449,10.48,24.449,9.947z M12.912,9.033c0.553,0,1,0.448,1,1s-0.447,1-1,1c-2.45,0-4.671,1.534-5.525,3.818    c-0.15,0.401-0.531,0.65-0.937,0.65c-0.116,0-0.235-0.021-0.351-0.064c-0.518-0.193-0.779-0.77-0.586-1.287    C6.659,11.089,9.632,9.033,12.912,9.033z"/><path class="st2" d="M6.1,15.437c0.115,0.043,0.234,0.064,0.351,0.064c0.405,0,0.786-0.249,0.937-0.65    c0.854-2.284,3.075-3.818,5.525-3.818c0.553,0,1-0.448,1-1s-0.447-1-1-1c-3.28,0-6.253,2.057-7.398,5.117    C5.32,14.667,5.582,15.244,6.1,15.437z"/><path class="st3" d="M27.003,21.86h-0.01c-0.552,0-0.995,0.448-0.995,1s0.453,1,1.005,1c0.553,0,1-0.448,1-1    S27.556,21.86,27.003,21.86z"/><path class="st3" d="M27.003,25.894h-0.01c-0.552,0-0.995,0.448-0.995,1s0.453,1,1.005,1c0.553,0,1-0.448,1-1    S27.556,25.894,27.003,25.894z"/><path class="st3" d="M24.986,23.877h-0.01c-0.552,0-0.995,0.448-0.995,1s0.453,1,1.005,1c0.553,0,1-0.448,1-1    S25.539,23.877,24.986,23.877z"/><path class="st3" d="M29.02,23.877h-0.01c-0.552,0-0.995,0.448-0.995,1s0.453,1,1.005,1c0.553,0,1-0.448,1-1    S29.572,23.877,29.02,23.877z"/></g></g></svg>